<svg xmlns="http://www.w3.org/2000/svg" version="1.1" xmlns:xlink="http://www.w3.org/1999/xlink" xmlns:svgjs="http://svgjs.dev/svgjs" viewBox="0 0 800 800" opacity="0.1"><defs><linearGradient x1="50%" y1="0%" x2="50%" y2="100%" id="cccoil-grad"><stop stop-color="#00b8db" stop-opacity="1" offset="0%"></stop><stop stop-color="#f6339a" stop-opacity="1" offset="100%"></stop></linearGradient></defs><g stroke="url(#cccoil-grad)" fill="none" stroke-linecap="round"><circle r="396" cx="400" cy="400" stroke-width="7" stroke-dasharray="2488 2488" transform="rotate(360, 400, 400)" opacity="0.05"></circle><circle r="379.5" cx="400" cy="400" stroke-width="7" stroke-dasharray="2281 2384" transform="rotate(344, 400, 400)" opacity="0.09"></circle><circle r="363" cx="400" cy="400" stroke-width="7" stroke-dasharray="2082 2281" transform="rotate(329, 400, 400)" opacity="0.13"></circle><circle r="346.5" cx="400" cy="400" stroke-width="7" stroke-dasharray="1893 2177" transform="rotate(313, 400, 400)" opacity="0.17"></circle><circle r="330" cx="400" cy="400" stroke-width="7" stroke-dasharray="1713 2073" transform="rotate(297, 400, 400)" opacity="0.22"></circle><circle r="313.5" cx="400" cy="400" stroke-width="7" stroke-dasharray="1542 1970" transform="rotate(282, 400, 400)" opacity="0.26"></circle><circle r="297" cx="400" cy="400" stroke-width="7" stroke-dasharray="1379 1866" transform="rotate(266, 400, 400)" opacity="0.30"></circle><circle r="280.5" cx="400" cy="400" stroke-width="7" stroke-dasharray="1226 1762" transform="rotate(250, 400, 400)" opacity="0.34"></circle><circle r="264" cx="400" cy="400" stroke-width="7" stroke-dasharray="1082 1659" transform="rotate(235, 400, 400)" opacity="0.38"></circle><circle r="247.5" cx="400" cy="400" stroke-width="7" stroke-dasharray="947 1555" transform="rotate(219, 400, 400)" opacity="0.42"></circle><circle r="231" cx="400" cy="400" stroke-width="7" stroke-dasharray="820 1451" transform="rotate(203, 400, 400)" opacity="0.46"></circle><circle r="214.5" cx="400" cy="400" stroke-width="7" stroke-dasharray="703 1348" transform="rotate(188, 400, 400)" opacity="0.50"></circle><circle r="198" cx="400" cy="400" stroke-width="7" stroke-dasharray="595 1244" transform="rotate(172, 400, 400)" opacity="0.55"></circle><circle r="181.5" cx="400" cy="400" stroke-width="7" stroke-dasharray="496 1140" transform="rotate(157, 400, 400)" opacity="0.59"></circle><circle r="165" cx="400" cy="400" stroke-width="7" stroke-dasharray="406 1037" transform="rotate(141, 400, 400)" opacity="0.63"></circle><circle r="148.5" cx="400" cy="400" stroke-width="7" stroke-dasharray="325 933" transform="rotate(125, 400, 400)" opacity="0.67"></circle><circle r="132" cx="400" cy="400" stroke-width="7" stroke-dasharray="252 829" transform="rotate(110, 400, 400)" opacity="0.71"></circle><circle r="115.5" cx="400" cy="400" stroke-width="7" stroke-dasharray="189 726" transform="rotate(94, 400, 400)" opacity="0.75"></circle><circle r="99" cx="400" cy="400" stroke-width="7" stroke-dasharray="135 622" transform="rotate(78, 400, 400)" opacity="0.79"></circle><circle r="82.5" cx="400" cy="400" stroke-width="7" stroke-dasharray="90 518" transform="rotate(63, 400, 400)" opacity="0.83"></circle><circle r="66" cx="400" cy="400" stroke-width="7" stroke-dasharray="54 415" transform="rotate(47, 400, 400)" opacity="0.88"></circle><circle r="49.5" cx="400" cy="400" stroke-width="7" stroke-dasharray="27 311" transform="rotate(31, 400, 400)" opacity="0.92"></circle><circle r="33" cx="400" cy="400" stroke-width="7" stroke-dasharray="9 207" transform="rotate(16, 400, 400)" opacity="0.96"></circle><circle r="16.5" cx="400" cy="400" stroke-width="7" stroke-dasharray="0 104" opacity="1.00"></circle></g></svg>